<svg width="962" height="688" fill="none" xmlns="http://www.w3.org/2000/svg"><path fill-rule="evenodd" clip-rule="evenodd" d="M933.309 263.929c51.253 83.559 27.67 184.596-31.058 250.325-58.993 69.344-153.137 103.371-249.101 136.455-50.826 15.043-98.587 31.827-151.638 35.348-52.515 4.204-110.301-4.853-168.792-25.39-117.6-42.562-234.78-124.747-288.277-212.39-55.637-86.611-56.272-202.01-12.922-273.925C74.3 97.571 161.055 64.292 266.857 29.622 320.79 13.992 382.243-.18 448.04.442c65.562-.087 135.455 14.613 200.647 40.109 65.256 25.312 125.813 61.432 174.127 99.919 48.668 38.824 85.095 80.014 110.495 123.459z" fill="url(#paint0_linear)"/><defs><linearGradient id="paint0_linear" x1="1446.44" y1="325.05" x2="-347.365" y2="312.099" gradientUnits="userSpaceOnUse"><stop stop-color="#60CFFF"/><stop offset=".809" stop-color="#2183E5"/></linearGradient></defs></svg>