<svg width="962" height="688" viewBox="0 0 962 688" fill="none" xmlns="http://www.w3.org/2000/svg">
<path fill-rule="evenodd" clip-rule="evenodd" d="M933.309 263.929C984.562 347.488 960.979 448.525 902.251 514.254C843.258 583.598 749.114 617.625 653.15 650.709C602.324 665.752 554.563 682.536 501.512 686.057C448.997 690.261 391.211 681.204 332.72 660.667C215.12 618.105 97.9406 535.92 44.4433 448.277C-11.1944 361.666 -11.8293 246.267 31.5213 174.352C74.2989 97.5709 161.055 64.2923 266.857 29.6224C320.79 13.9912 382.243 -0.180786 448.04 0.442902C513.602 0.354749 583.495 15.0552 648.687 40.5507C713.943 65.8631 774.5 101.983 822.814 140.47C871.482 179.294 907.909 220.484 933.309 263.929Z" fill="url(#paint0_linear)"/>
<defs>
<linearGradient id="paint0_linear" x1="1446.44" y1="325.05" x2="-347.365" y2="312.099" gradientUnits="userSpaceOnUse">
<stop stop-color="#60CFFF"/>
<stop offset="0.808964" stop-color="#2183E5"/>
</linearGradient>
</defs>
</svg>
