<svg width="1141" height="1119" viewBox="0 0 1141 1119" fill="none" xmlns="http://www.w3.org/2000/svg">
<path fill-rule="evenodd" clip-rule="evenodd" d="M1029.31 490.929C1080.56 574.488 1056.98 675.525 998.251 741.254C939.258 810.598 845.114 844.625 749.15 877.709C698.324 892.752 650.563 909.536 597.512 913.057C544.997 917.261 487.211 908.204 428.72 887.667C311.12 845.105 193.941 762.92 140.443 675.277C84.8056 588.666 84.1707 473.267 127.521 401.352C170.299 324.571 257.055 291.292 362.857 256.622C416.79 240.991 478.243 226.819 544.04 227.443C609.602 227.355 679.495 242.055 744.687 267.551C809.943 292.863 870.5 328.983 918.814 367.47C967.482 406.294 1003.91 447.484 1029.31 490.929Z" fill="url(#paint0_linear)"/>
<defs>
<linearGradient id="paint0_linear" x1="1542.44" y1="552.05" x2="-251.365" y2="539.099" gradientUnits="userSpaceOnUse">
<stop stop-color="#60CFFF"/>
<stop offset="0.808964" stop-color="#2183E5"/>
</linearGradient>
</defs>
</svg>
