<svg width="50" height="50" viewBox="0 0 50 50" fill="none" xmlns="http://www.w3.org/2000/svg">
<path d="M10 7C4.48867 7 0 11.4887 0 17V39C0 44.5113 4.48867 49 10 49H32C37.5113 49 42 44.5113 42 39V17C42 11.4887 37.5113 7 32 7H10ZM10 9H32C36.4307 9 40 12.5693 40 17V39C40 43.4307 36.4307 47 32 47H10C5.56933 47 2 43.4307 2 39V17C2 12.5693 5.56933 9 10 9ZM18.5723 14.9023C18.1879 14.8778 17.791 14.9626 17.4336 15.1719C16.4806 15.7309 16.1617 16.9572 16.7207 17.9102L18.5312 21L12.666 31.0098H8C6.896 31.0098 6 31.9058 6 33.0098C6 34.1138 6.896 35.0098 8 35.0098H23.4121C23.5691 34.2468 23.4732 33.4193 23.0332 32.6543L23.0293 32.6504C22.6423 31.9764 22.1055 31.4258 21.4805 31.0098H17.3027L24.9785 17.9082C25.5365 16.9552 25.2167 15.7299 24.2637 15.1719C23.3097 14.6139 22.0853 14.9337 21.5273 15.8867L20.8496 17.043L20.1719 15.8867C19.8225 15.2911 19.2129 14.9433 18.5723 14.9023ZM24.3105 22.9512L23.4844 24.3242C22.5724 25.8402 22.543 27.7166 23.377 29.2656L29.6738 40.0117C30.0458 40.6477 30.7134 41 31.4004 41C31.7434 41 32.0922 40.9126 32.4102 40.7266C33.3632 40.1686 33.682 38.9432 33.123 37.9902L31.377 35.0098H34C35.104 35.0098 36 34.1138 36 33.0098C36 31.9058 35.104 31.0098 34 31.0098H29.0332L24.3105 22.9512ZM10.625 37.0137C10.068 36.9977 9.52672 37.0841 9.01172 37.2461L8.56641 38.0039C8.00741 38.9559 8.32825 40.1822 9.28125 40.7402C9.59925 40.9272 9.94606 41.0156 10.2891 41.0156C10.9761 41.0156 11.6446 40.6604 12.0176 40.0254L13.0938 38.1895C12.5087 37.5065 11.6539 37.0437 10.6309 37.0137H10.625Z" fill="white"/>
</svg>
