<svg width="34" height="34" viewBox="0 0 34 34" fill="none" xmlns="http://www.w3.org/2000/svg">
<path d="M10.88 2.04004C6.00444 2.04004 2.04004 6.00444 2.04004 10.88V23.12C2.04004 27.9956 6.00444 31.96 10.88 31.96H23.12C27.9956 31.96 31.96 27.9956 31.96 23.12V10.88C31.96 6.00444 27.9956 2.04004 23.12 2.04004H10.88ZM25.16 7.48004C25.908 7.48004 26.52 8.09204 26.52 8.84004C26.52 9.58804 25.908 10.2 25.16 10.2C24.412 10.2 23.8 9.58804 23.8 8.84004C23.8 8.09204 24.412 7.48004 25.16 7.48004ZM17 9.52004C21.1276 9.52004 24.48 12.8724 24.48 17C24.48 21.1276 21.1276 24.48 17 24.48C12.8724 24.48 9.52004 21.1276 9.52004 17C9.52004 12.8724 12.8724 9.52004 17 9.52004ZM17 10.88C13.6272 10.88 10.88 13.6272 10.88 17C10.88 20.3728 13.6272 23.12 17 23.12C20.3728 23.12 23.12 20.3728 23.12 17C23.12 13.6272 20.3728 10.88 17 10.88Z" fill="#3189F7"/>
</svg>
