<svg width="255" height="229" viewBox="0 0 255 229" fill="none" xmlns="http://www.w3.org/2000/svg">
<g clip-path="url(#clip0)">
<g style="mix-blend-mode:multiply" opacity="0.3">
<g style="mix-blend-mode:multiply" opacity="0.3">
<path d="M97.0704 69.9214V78.7813C70.502 96.6607 54.1502 117.6 48.015 141.599C53.2736 137.214 59.6166 134.32 66.3807 133.218C70.689 132.685 75.0627 133.209 79.1212 134.747C83.1798 136.284 86.8003 138.787 89.6681 142.038C96.1561 149.216 99.5737 158.64 99.191 168.298C99.2562 174.078 98.1763 179.814 96.0134 185.176C93.8504 190.539 90.6471 195.422 86.5871 199.547C78.5987 208.116 67.7047 213.421 56.0175 214.433C50.3012 215.11 44.5063 214.33 39.1743 212.166C33.8423 210.002 29.1473 206.526 25.5279 202.061C17.0267 191.665 12.6674 178.507 13.2841 165.105C13.2841 143.687 21.5 123.733 37.9318 105.241C53.1748 87.2554 73.9775 74.8313 97.0704 69.9214Z" fill="#EAEAEA"/>
</g>
<g style="mix-blend-mode:multiply" opacity="0.3">
<path d="M211.466 45.5762V54.4361C184.791 72.2622 168.399 93.2014 162.291 117.253C167.588 112.833 173.993 109.936 180.817 108.872C185.12 108.329 189.491 108.849 193.545 110.387C197.599 111.925 201.211 114.434 204.064 117.692C210.531 124.865 213.934 134.274 213.547 143.913C213.679 155.489 209.221 166.649 201.143 174.962C193.21 183.658 182.278 189.046 170.533 190.048C164.82 190.744 159.022 189.978 153.688 187.82C148.353 185.662 143.658 182.185 140.044 177.716C131.642 167.278 127.371 154.129 128.04 140.76C128.04 119.289 136.229 99.2676 152.608 80.6964C167.791 62.8162 188.491 50.4644 211.466 45.5762Z" fill="#D4D4D4"/>
</g>
<g style="mix-blend-mode:multiply" opacity="0.3">
<path d="M121.118 43.5408V52.4007C94.6029 70.2801 78.2378 91.2192 72.0225 115.218C77.2811 110.834 83.6241 107.939 90.3883 106.837C94.6964 106.327 99.0642 106.871 103.114 108.422C107.165 109.972 110.776 112.483 113.636 115.737C120.109 122.922 123.512 132.345 123.119 141.997C123.229 153.585 118.741 164.746 110.635 173.047C102.667 181.684 91.7485 187.037 80.025 188.053C74.2874 188.757 68.4645 187.982 63.1126 185.802C57.7607 183.622 53.0586 180.11 49.4554 175.601C40.9696 165.227 36.611 152.1 37.2116 138.725C37.2116 117.307 45.4275 97.3519 61.8593 78.8606C77.1453 60.8662 97.9884 48.4431 121.118 43.5408Z" fill="#C3C3C3"/>
</g>
<g style="mix-blend-mode:multiply" opacity="0.3">
<path d="M222.39 33.5635V42.4633C195.715 60.2895 179.323 81.2153 173.214 105.241C178.525 100.842 184.924 97.9478 191.74 96.8598C196.029 96.3469 200.379 96.8817 204.415 98.4182C208.451 99.9547 212.052 102.447 214.907 105.68C221.381 112.865 224.784 122.288 224.39 131.94C224.509 143.499 220.085 154.644 212.067 162.99C204.119 171.688 193.173 177.075 181.417 178.075C175.696 178.79 169.887 178.032 164.543 175.874C159.198 173.715 154.497 170.227 150.887 165.743C142.493 155.286 138.223 142.127 138.884 128.747C138.884 107.329 147.086 87.3746 163.491 68.8833C178.654 50.9216 199.374 38.4969 222.39 33.5635Z" fill="#C3C3C3"/>
</g>
<g style="mix-blend-mode:multiply" opacity="0.3">
<path d="M127.68 36.3577V45.2175C101.245 62.9639 84.8666 83.903 78.5446 108.035C83.8164 103.694 90.1583 100.841 96.9103 99.7737C101.183 99.2529 105.519 99.7724 109.546 101.288C113.574 102.803 117.174 105.268 120.038 108.474C126.505 115.647 129.908 125.055 129.521 134.694C129.642 146.296 125.153 157.473 117.037 165.784C109.049 174.445 98.1013 179.812 86.347 180.83C80.6587 181.498 74.8934 180.717 69.5895 178.561C64.2857 176.404 59.6163 172.942 56.0175 168.498C47.5537 158.143 43.1967 145.049 43.7737 131.701C43.7737 110.283 51.9896 90.3284 68.4214 71.8371C83.6713 53.7695 104.522 41.2855 127.68 36.3577Z" fill="#B8B8B8"/>
</g>
<g style="mix-blend-mode:multiply" opacity="0.3">
<path d="M228.952 26.3804V35.2403C202.437 53.1197 186.045 74.0588 179.777 98.0576C185.098 93.651 191.511 90.7559 198.342 89.6766C202.626 89.1566 206.972 89.6883 211.003 91.2254C215.034 92.7626 218.627 95.2587 221.47 98.4966C227.943 105.682 231.346 115.105 230.953 124.757C231.042 136.278 226.587 147.373 218.549 155.647C210.653 164.344 199.773 169.77 188.059 170.852C182.338 171.571 176.527 170.815 171.183 168.656C165.838 166.497 161.137 163.007 157.53 158.52C149.131 148.081 144.861 134.933 145.526 121.564C145.526 100.146 153.728 80.1915 170.134 61.7002C185.276 43.7535 205.965 31.3302 228.952 26.3804Z" fill="#B8B8B8"/>
</g>
<g style="mix-blend-mode:multiply" opacity="0.3">
<path d="M129.881 33.9629V42.8228C103.339 60.649 86.9474 81.5881 80.7054 105.64C85.9624 101.229 92.326 98.3314 99.1112 97.2592C103.419 96.7331 107.791 97.2612 111.848 98.7979C115.905 100.335 119.526 102.834 122.398 106.079C128.924 113.227 132.385 122.639 132.042 132.3C132.152 143.887 127.664 155.048 119.558 163.349C111.583 172.034 100.631 177.418 88.868 178.435C83.1541 179.131 77.3566 178.364 72.0222 176.207C66.6878 174.049 61.9922 170.572 58.3784 166.103C49.8493 155.72 45.4738 142.556 46.0945 129.147C46.0945 107.729 54.3238 87.774 70.7823 69.2827C86.009 51.2974 106.799 38.8724 129.881 33.9629Z" fill="#B4B4B4"/>
</g>
<g style="mix-blend-mode:multiply" opacity="0.3">
<path d="M231.152 23.9456V32.8453C204.584 50.8578 188.192 71.8368 181.977 95.7824C187.284 91.3773 193.684 88.4819 200.503 87.4015C204.787 86.8779 209.134 87.408 213.165 88.9453C217.196 90.4827 220.789 92.9808 223.63 96.2214C230.133 103.391 233.553 112.822 233.153 122.482C233.248 134.059 228.779 145.21 220.709 153.531C212.767 162.209 201.837 167.582 190.1 168.577C184.373 169.288 178.559 168.528 173.21 166.37C167.86 164.211 163.151 160.727 159.53 156.245C151.145 145.798 146.876 132.656 147.526 119.289C147.526 97.871 155.715 77.9163 172.094 59.425C187.274 41.374 208.057 28.8887 231.152 23.9456Z" fill="#B4B4B4"/>
</g>
<g style="mix-blend-mode:multiply" opacity="0.3">
<path d="M132.041 31.5281V40.4279C105.366 58.2807 88.9745 79.2065 82.8659 103.205C88.1204 98.8219 94.467 95.9396 101.232 94.8643C105.553 94.3341 109.939 94.8681 114.005 96.4196C118.072 97.9711 121.695 100.493 124.559 103.764C131.041 110.931 134.458 120.34 134.082 129.985C134.192 141.572 129.705 152.733 121.598 161.034C113.614 169.728 102.646 175.112 90.8684 176.12C85.1411 176.79 79.337 175.995 74.0029 173.809C68.6688 171.624 63.9802 168.12 60.3789 163.628C51.8533 153.27 47.4518 140.142 48.015 126.752C48.015 105.281 56.2309 85.3259 72.6627 66.8878C87.9636 48.8443 108.857 36.4021 132.041 31.5281Z" fill="#B1B1B1"/>
</g>
<g style="mix-blend-mode:multiply" opacity="0.3">
<path d="M233.353 21.5908V30.4507C206.785 48.3301 190.353 69.2692 184.058 93.2681C189.365 88.8629 195.765 85.9675 202.584 84.8871C206.867 84.3635 211.215 84.8936 215.246 86.431C219.277 87.9684 222.87 90.4664 225.711 93.7071C232.184 100.892 235.587 110.315 235.194 119.967C235.315 131.53 230.858 142.673 222.79 150.977C214.852 159.666 203.923 165.053 192.18 166.063C186.454 166.773 180.64 166.013 175.29 163.855C169.941 161.697 165.232 158.212 161.611 153.731C153.209 143.293 148.938 130.144 149.607 116.775C149.607 95.3034 157.796 75.3487 174.175 56.9106C189.41 38.8962 210.236 26.4667 233.353 21.5908Z" fill="#B1B1B1"/>
</g>
</g>
<path d="M151.768 9.97729V18.8372C125.279 36.69 108.888 57.6291 102.592 81.6545C107.869 77.2754 114.224 74.382 120.998 73.2736C125.3 72.7438 129.667 73.2704 133.718 74.8075C137.77 76.3447 141.384 78.8459 144.245 82.0935C150.742 89.2511 154.162 98.6668 153.768 108.314C153.889 119.915 149.401 131.093 141.284 139.403C133.286 148.073 122.323 153.441 110.555 154.449C104.834 155.156 99.0275 154.395 93.6847 152.237C88.342 150.079 83.6403 146.595 80.0252 142.117C71.5966 131.694 67.3221 118.534 68.0214 105.161C68.0214 83.7431 76.2507 63.7884 92.7092 45.2971C107.926 27.3193 128.7 14.895 151.768 9.97729Z" fill="#2183E5"/>
<path d="M253.039 0V8.85988C226.471 26.7393 210.146 47.7316 204.064 71.8369C209.371 67.4317 215.771 64.5363 222.59 63.4559C226.873 62.9428 231.217 63.4777 235.246 65.0144C239.276 66.5511 242.87 69.0434 245.717 72.2759C252.191 79.4608 255.594 88.8842 255.2 98.5362C255.332 110.113 250.874 121.272 242.796 129.586C234.794 138.225 223.822 143.54 212.066 144.472C206.339 145.202 200.519 144.451 195.166 142.291C189.812 140.132 185.106 136.636 181.497 132.14C173.095 121.702 168.824 108.553 169.493 95.1839C169.493 73.7392 177.682 53.7845 194.061 35.3198C209.256 17.3571 230.001 4.93412 253.039 0V0Z" fill="#2183E5"/>
</g>
<defs>
<clipPath id="clip0">
<rect width="255" height="229" fill="white"/>
</clipPath>
</defs>
</svg>
