<svg width="50" height="50" fill="none" xmlns="http://www.w3.org/2000/svg"><path d="M10 7C4.489 7 0 11.489 0 17v22c0 5.511 4.489 10 10 10h22c5.511 0 10-4.489 10-10V17c0-5.511-4.489-10-10-10H10zm0 2h22c4.43 0 8 3.57 8 8v22c0 4.43-3.57 8-8 8H10c-4.43 0-8-3.57-8-8V17c0-4.43 3.57-8 8-8zm8.572 5.902a2.001 2.001 0 00-1.852 3.008L18.532 21l-5.865 10.01H8a2 2 0 000 4h15.412a3.328 3.328 0 00-.379-2.356l-.004-.004a4.91 4.91 0 00-1.549-1.64h-4.177l7.675-13.102a2 2 0 00-3.45-2.021l-.678 1.156-.678-1.156a1.998 1.998 0 00-1.6-.985zm5.739 8.05l-.827 1.372a4.99 4.99 0 00-.107 4.942l6.297 10.746c.372.636 1.04.988 1.726.988a1.999 1.999 0 001.723-3.01l-1.746-2.98H34a2 2 0 000-4h-4.967l-4.723-8.06zM10.625 37.013a4.895 4.895 0 00-1.613.232l-.446.758a2 2 0 103.452 2.021l1.076-1.835a3.334 3.334 0 00-2.463-1.176h-.006z" fill="#fff"/></svg>