<svg width="255" height="229" fill="none" xmlns="http://www.w3.org/2000/svg"><g clip-path="url(#clip0)"><g style="mix-blend-mode:multiply" opacity=".3"><path d="M97.07 69.921v8.86C70.502 96.661 54.15 117.6 48.015 141.6a38.29 38.29 0 0118.366-8.381 26.703 26.703 0 0112.74 1.529 26.648 26.648 0 0110.547 7.291 36.976 36.976 0 019.523 26.26 43.796 43.796 0 01-3.178 16.878 43.89 43.89 0 01-9.426 14.371 47.38 47.38 0 01-30.57 14.886 34.12 34.12 0 01-16.843-2.267 34.045 34.045 0 01-13.646-10.105 54.424 54.424 0 01-12.244-36.956c0-21.418 8.216-41.372 24.648-59.864a106.565 106.565 0 0159.138-35.32z" fill="#EAEAEA" opacity=".3"/><path d="M211.466 45.576v8.86c-26.675 17.826-43.067 38.765-49.175 62.817a38.07 38.07 0 0118.526-8.381 26.524 26.524 0 0112.728 1.515 26.454 26.454 0 0110.519 7.305 36.944 36.944 0 019.483 26.221 43.835 43.835 0 01-12.404 31.049 46.819 46.819 0 01-30.61 15.086 33.967 33.967 0 01-16.845-2.228 33.886 33.886 0 01-13.644-10.104 54.582 54.582 0 01-12.004-36.956c0-21.471 8.189-41.492 24.568-60.064a106.204 106.204 0 0158.858-35.12z" fill="#D4D4D4" opacity=".3"/><path d="M121.118 43.54v8.86c-26.515 17.88-42.88 38.82-49.096 62.818a38.3 38.3 0 0118.366-8.381c4.308-.51 8.676.034 12.726 1.585a26.72 26.72 0 0110.522 7.315 36.983 36.983 0 019.483 26.26 43.846 43.846 0 01-12.484 31.05 47.189 47.189 0 01-30.61 15.006 33.894 33.894 0 01-16.912-2.251 33.804 33.804 0 01-13.658-10.201 54.385 54.385 0 01-12.243-36.876c0-21.418 8.215-41.373 24.647-59.864a106.804 106.804 0 0159.259-35.32zm101.272-9.977v8.9c-26.675 17.826-43.067 38.752-49.176 62.778a38.576 38.576 0 0118.526-8.381 26.713 26.713 0 0112.675 1.558 26.643 26.643 0 0110.492 7.262 36.974 36.974 0 019.483 26.26 44.161 44.161 0 01-12.323 31.05 46.903 46.903 0 01-30.65 15.085 33.855 33.855 0 01-16.874-2.201 33.765 33.765 0 01-13.656-10.131 54.78 54.78 0 01-12.003-36.996c0-21.418 8.202-41.372 24.607-59.864a106.204 106.204 0 0158.899-35.32z" fill="#C3C3C3" opacity=".3"/><path d="M127.68 36.358v8.86c-26.435 17.746-42.813 38.685-49.135 62.817a38.3 38.3 0 0118.365-8.261 26.704 26.704 0 0112.636 1.514 26.644 26.644 0 0110.492 7.186 36.942 36.942 0 019.483 26.22 43.844 43.844 0 01-12.484 31.09 47.301 47.301 0 01-30.69 15.046 33.98 33.98 0 01-16.757-2.269 33.892 33.892 0 01-13.573-10.063 54.426 54.426 0 01-12.243-36.797c0-21.418 8.216-41.373 24.647-59.864a106.562 106.562 0 0159.259-35.48zm101.272-9.978v8.86c-26.515 17.88-42.907 38.819-49.175 62.818a38.535 38.535 0 0118.565-8.381c4.284-.52 8.63.011 12.661 1.548a26.488 26.488 0 0110.467 7.272 36.985 36.985 0 019.483 26.26 43.845 43.845 0 01-12.404 30.89 47.021 47.021 0 01-30.49 15.205 33.804 33.804 0 01-16.876-2.196 33.72 33.72 0 01-13.653-10.136 54.62 54.62 0 01-12.004-36.956c0-21.418 8.202-41.372 24.608-59.864a106.2 106.2 0 0158.818-35.32z" fill="#B8B8B8" opacity=".3"/><path d="M129.881 33.963v8.86c-26.542 17.826-42.934 38.765-49.176 62.817a37.818 37.818 0 0118.406-8.38c4.308-.527 8.68.001 12.737 1.538a26.739 26.739 0 0110.55 7.281 36.943 36.943 0 019.644 26.221 43.846 43.846 0 01-12.484 31.049 47.183 47.183 0 01-30.69 15.086 33.98 33.98 0 01-16.846-2.228 33.888 33.888 0 01-13.644-10.104 54.265 54.265 0 01-12.284-36.956c0-21.418 8.23-41.373 24.688-59.864a106.443 106.443 0 0159.099-35.32zm101.271-10.017v8.9c-26.568 18.012-42.96 38.99-49.175 62.936a38.419 38.419 0 0118.526-8.38 26.51 26.51 0 0112.662 1.543 26.453 26.453 0 0110.465 7.276 36.82 36.82 0 019.523 26.261 44.077 44.077 0 01-12.444 31.049 46.858 46.858 0 01-30.609 15.046 33.964 33.964 0 01-16.89-2.207 33.885 33.885 0 01-13.68-10.125 54.784 54.784 0 01-12.004-36.956c0-21.418 8.189-41.373 24.568-59.864a106.201 106.201 0 0159.058-35.48z" fill="#B4B4B4" opacity=".3"/><path d="M132.041 31.528v8.9c-26.675 17.853-43.066 38.779-49.175 62.777a37.98 37.98 0 0118.366-8.34c4.321-.53 8.707.003 12.773 1.555a26.654 26.654 0 0110.554 7.344 36.942 36.942 0 019.523 26.221 43.841 43.841 0 01-12.484 31.049 47.182 47.182 0 01-30.73 15.086 34.046 34.046 0 01-16.865-2.311 33.96 33.96 0 01-13.624-10.181 54.424 54.424 0 01-12.364-36.876c0-21.471 8.216-41.426 24.648-59.864a106.603 106.603 0 0159.378-35.36zm101.312-9.938v8.86c-26.568 17.88-43 38.82-49.295 62.818a38.418 38.418 0 0118.526-8.38 26.51 26.51 0 0112.662 1.543 26.452 26.452 0 0110.465 7.276 36.983 36.983 0 019.483 26.26 43.84 43.84 0 01-12.404 31.01 46.903 46.903 0 01-30.61 15.086c-5.726.71-11.54-.05-16.89-2.208a33.886 33.886 0 01-13.679-10.124 54.582 54.582 0 01-12.004-36.956c0-21.472 8.189-41.426 24.568-59.864a106.204 106.204 0 0159.178-35.32z" fill="#B1B1B1" opacity=".3"/></g><path d="M151.768 9.977v8.86c-26.489 17.853-42.88 38.792-49.176 62.818a38.578 38.578 0 0118.406-8.381 26.67 26.67 0 0112.72 1.534 26.604 26.604 0 0110.527 7.285 36.778 36.778 0 019.523 26.221 43.837 43.837 0 01-12.484 31.089 47.298 47.298 0 01-30.729 15.046 33.935 33.935 0 01-16.87-2.212 33.846 33.846 0 01-13.66-10.12 54.263 54.263 0 01-12.004-36.956c0-21.418 8.23-41.373 24.688-59.864a106.443 106.443 0 0159.059-35.32zM253.039 0v8.86c-26.568 17.88-42.893 38.872-48.975 62.977a38.418 38.418 0 0118.526-8.381 26.629 26.629 0 0112.656 1.558 26.564 26.564 0 0110.471 7.262 36.975 36.975 0 019.483 26.26 43.837 43.837 0 01-12.404 31.05 46.943 46.943 0 01-30.73 14.886 33.76 33.76 0 01-16.9-2.181 33.677 33.677 0 01-13.669-10.151 54.582 54.582 0 01-12.004-36.956c0-21.445 8.189-41.4 24.568-59.864A106.441 106.441 0 01253.039 0z" fill="#2183E5"/></g><defs><clipPath id="clip0"><path fill="#fff" d="M0 0h255v229H0z"/></clipPath></defs></svg>